<svg width="16" height="16" viewBox="0 0 16 16" fill="none" xmlns="http://www.w3.org/2000/svg">
    <path fill-rule="evenodd" clip-rule="evenodd" d="M9.33613 1.1108L14.8403 5.61383L14.8686 5.64501C14.9544 5.73924 15.0856 5.88935 15.1968 6.06844C15.3028 6.23935 15.4286 6.49633 15.4286 6.79747V14.2843C15.4286 14.915 14.9182 15.4286 14.2857 15.4286H10.7201C10.2467 15.4286 9.86293 15.0448 9.86293 14.5714V11.8822C9.86293 10.8542 9.0319 10.0231 8.00961 10.0231C6.98738 10.0231 6.1563 10.8542 6.1563 11.8822V14.5714C6.1563 15.0448 5.77258 15.4286 5.29918 15.4286H1.7143C1.08183 15.4286 0.571442 14.915 0.571442 14.2843V6.70998C0.571442 6.33718 0.778864 6.03655 0.897076 5.8873C0.966007 5.80027 1.03357 5.72935 1.08362 5.68019C1.10898 5.65528 1.13074 5.63511 1.1471 5.62036C1.1553 5.61296 1.16221 5.60686 1.16761 5.60217L1.17459 5.59615L1.1772 5.59393L1.17874 5.59261C1.17874 5.59261 1.17919 5.59225 1.54716 6.02941L1.17919 5.59225L1.18488 5.58745L6.64504 1.11208C7.39727 0.391685 8.58321 0.391119 9.33613 1.1108ZM1.9157 6.46621L1.91247 6.46907C1.90672 6.47427 1.89689 6.48336 1.88435 6.49564C1.85859 6.52096 1.82509 6.55633 1.79295 6.5969C1.75982 6.63873 1.73601 6.67621 1.72215 6.70535C1.71808 6.71393 1.71566 6.7201 1.7143 6.72398V14.2843L1.71433 14.2852L1.7147 14.2857H5.01346V11.8822C5.01346 10.2256 6.35361 8.88027 8.00961 8.88027C9.66567 8.88027 11.0058 10.2256 11.0058 11.8822V14.2857H14.2853L14.2857 14.2843V6.79747C14.2857 6.79936 14.2862 6.79953 14.2857 6.79747C14.2838 6.78924 14.2736 6.74827 14.2256 6.67095C14.1776 6.59364 14.1146 6.51638 14.0503 6.4441L8.57373 1.96367L8.5551 1.94535C8.24161 1.63703 7.74007 1.63727 7.42687 1.94589L7.40824 1.96423L1.9157 6.46621Z" fill="#EBEBEB"/>
</svg>
