<svg width="20" height="20" viewBox="0 0 20 20" fill="none" xmlns="http://www.w3.org/2000/svg">
    <path d="M14.8176 8.8916C14.8173 8.17111 14.6555 7.45986 14.3439 6.81021C14.0324 6.16057 13.5791 5.58907 13.0175 5.13779C12.4558 4.68652 11.8001 4.36698 11.0986 4.20268C10.3971 4.03838 9.66768 4.03352 8.96405 4.18845C8.26042 4.34338 7.6005 4.65415 7.03288 5.09789C6.46526 5.54164 6.0044 6.10704 5.68422 6.75248C5.36405 7.39791 5.19272 8.10694 5.18286 8.82736C5.17299 9.54778 5.32483 10.2612 5.6272 10.9152L7.9632 16.0304H12.0368L14.3728 10.9152C14.6666 10.2811 14.8184 9.59047 14.8176 8.8916Z" fill="#2e59be"/>
    <path d="M10 4.07401C9.78452 4.07558 9.56937 4.09162 9.35602 4.12201C10.1032 4.2224 10.8164 4.49687 11.4382 4.92331C12.0599 5.34974 12.5728 5.91623 12.9356 6.57714C13.2984 7.23805 13.5009 7.97492 13.5268 8.7284C13.5527 9.48189 13.4013 10.2309 13.0848 10.9152L10.7488 16.0304H12.0368L14.3728 10.9152C14.7122 10.181 14.8613 9.37326 14.8064 8.56632C14.7516 7.75938 14.4945 6.97923 14.0589 6.29774C13.6233 5.61626 13.0232 5.05537 12.3139 4.66675C11.6045 4.27813 10.8088 4.07429 10 4.07401Z" fill="#2e59be"/>
    <path d="M10 0.435181V2.01678" stroke="#2e59be" stroke-width="0.8" stroke-linecap="round" stroke-linejoin="round"/>
    <path d="M15.938 2.94678L14.8288 4.07398" stroke="#2e59be" stroke-width="0.8" stroke-linecap="round" stroke-linejoin="round"/>
    <path d="M18.2456 8.92722H16.6644" stroke="#2e59be" stroke-width="0.8" stroke-linecap="round" stroke-linejoin="round"/>
    <path d="M4.06201 2.94678L5.17121 4.07398" stroke="#2e59be" stroke-width="0.8" stroke-linecap="round" stroke-linejoin="round"/>
    <path d="M1.75439 8.92722H3.33559" stroke="#2e59be" stroke-width="0.8" stroke-linecap="round" stroke-linejoin="round"/>
    <path d="M14.8176 8.8916C14.8173 8.17111 14.6555 7.45986 14.3439 6.81021C14.0324 6.16057 13.5791 5.58907 13.0175 5.13779C12.4558 4.68652 11.8001 4.36698 11.0986 4.20268C10.3971 4.03838 9.66768 4.03352 8.96405 4.18845C8.26042 4.34338 7.6005 4.65415 7.03288 5.09789C6.46526 5.54164 6.0044 6.10704 5.68422 6.75248C5.36405 7.39791 5.19272 8.10694 5.18286 8.82736C5.17299 9.54778 5.32483 10.2612 5.6272 10.9152L7.9632 16.0304H12.0368L14.3728 10.9152C14.6666 10.2811 14.8184 9.59047 14.8176 8.8916Z" stroke="#2e59be" stroke-width="0.8" stroke-linecap="round" stroke-linejoin="round"/>
    <path d="M7.95999 16.0304H12.04V17.526C12.04 18.067 11.8251 18.5859 11.4425 18.9685C11.0599 19.3511 10.541 19.566 9.99999 19.566C9.45895 19.566 8.94007 19.3511 8.55749 18.9685C8.17492 18.5859 7.95999 18.067 7.95999 17.526V16.0304Z" fill="#2e59be"/>
    <path d="M10.7508 16.0304V17.526C10.7504 17.9538 10.6155 18.3706 10.3652 18.7175C10.1149 19.0644 9.76185 19.3239 9.35602 19.4592C9.56359 19.5289 9.78106 19.5645 10 19.5648C10.2679 19.5648 10.5332 19.512 10.7807 19.4095C11.0282 19.307 11.2531 19.1567 11.4425 18.9673C11.6319 18.7779 11.7822 18.553 11.8847 18.3055C11.9873 18.058 12.04 17.7927 12.04 17.5248V16.0304H10.7508Z" fill="#2e59be"/>
    <path d="M7.95999 16.0304H12.04V17.526C12.04 18.067 11.8251 18.5859 11.4425 18.9685C11.0599 19.3511 10.541 19.566 9.99999 19.566C9.45895 19.566 8.94007 19.3511 8.55749 18.9685C8.17492 18.5859 7.95999 18.067 7.95999 17.526V16.0304Z" stroke="#2e59be" stroke-width="0.8" stroke-linecap="round" stroke-linejoin="round"/>
    <path d="M7.4556 17.4452H12.5444" stroke="#2e59be" stroke-width="0.8" stroke-linecap="round" stroke-linejoin="round"/>
    <path d="M7.4556 16.0304H12.5444" stroke="#2e59be" stroke-width="0.8" stroke-linecap="round" stroke-linejoin="round"/>
</svg>
