<?xml version="1.0" encoding="UTF-8"?><svg id="a" xmlns="http://www.w3.org/2000/svg" viewBox="0 0 126.1216 37.493"><defs><style>.b{fill:#28b14b;}</style></defs><path class="b" d="M9.8229,6.4607C4.4062,6.4607,0,10.8677,0,16.2844s4.4062,9.8228,9.8229,9.8228c1.1794,0,2.3104-.2087,3.3591-.5914.4005.622.6338,1.361.6338,2.1543,0,2.2018-1.7911,3.9938-3.9929,3.9938-1.3508,0-2.5463-.6745-3.2692-1.7046l-4.7744,3.343c1.7784,2.5319,4.7209,4.1907,8.0436,4.1907,5.4167,0,9.8228-4.4071,9.8228-9.8237,0-2.1204-.6753-4.0846-1.8225-5.6925,1.1472-1.607,1.8225-3.573,1.8225-5.6933,0-5.415-4.4061-9.8228-9.8228-9.8228ZM9.8229,20.2773c-2.2018,0-3.993-1.7911-3.993-3.9929s1.7912-3.9938,3.993-3.9938,3.9929,1.7911,3.9929,3.9938-1.7911,3.9929-3.9929,3.9929Z"/><path class="b" d="M90.4557,6.8454c-2.7966,0-4.3264,1.243-4.8991,1.7284v-1.2583h-6.3102v18.0845h6.3102v-9.2468c0-.8035.263-1.5281.7398-2.0372.5134-.5489,1.2515-.8391,2.1365-.8391.8841,0,1.6232.2902,2.1365.8391.4768.51.7399,1.2337.7399,2.0372v9.2468h6.2736v-10.8326c0-2.3783-.8222-4.3544-2.1017-5.717-1.2175-1.2948-3.0502-2.005-5.0255-2.005Z"/><path class="b" d="M22.2183,2.0889c-1.4187-1.4187-3.7266-1.4187-5.1452,0-1.4187,1.4195-1.4187,3.7274,0,5.1452,1.4186,1.4178,3.7265,1.4186,5.1452,0,1.4186-1.4187,1.4186-3.7257,0-5.1452Z"/><path class="b" d="M36.6062,16.284c0-5.6504,4.0276-9.7946,9.7396-9.7946s9.6293,4.1442,9.6293,9.7946v1.5828h-13.657c.4397,2.1841,2.0511,3.1642,4.0276,3.1642,1.5741,0,2.7457-.339,3.4418-1.3558h5.6748c-1.1716,3.8421-4.6134,6.4035-9.1166,6.4035-5.712,0-9.7396-4.1442-9.7396-9.7946ZM50.3362,14.287c-.6216-1.9203-2.0869-2.75-3.9904-2.75s-3.3688.8666-3.9173,2.75h7.9077Z"/><path class="b" d="M34.6551,6.9179c-2.7358.0281-4.2072,1.2043-4.8,1.6978v-1.2987h-6.3v18.0817h6.3v-9.1907c0-.7992.3-1.4985.7-1.998.5-.4995,1.3-.7992,2.1-.7992s1.5.1998,2,.6993"/><path class="b" d="M34.7551,6.9174c-.0335,0-.0669.0002-.1.0005"/><path class="b" d="M57.9263,16.284c0-5.6504,4.0276-9.7946,9.7396-9.7946s9.6293,4.1442,9.6293,9.7946v1.5828h-13.657c.4397,2.1841,2.0511,3.1642,4.0276,3.1642,1.5741,0,2.7457-.339,3.4418-1.3558h5.6748c-1.1716,3.8421-4.6134,6.4035-9.1166,6.4035-5.712,0-9.7396-4.1442-9.7396-9.7946ZM71.6563,14.287c-.6216-1.9203-2.0869-2.75-3.9904-2.75s-3.3688.8666-3.9173,2.75h7.9077Z"/><path class="b" d="M105.834,0h-6.3v25.4h6.3V0Z"/><path class="b" d="M114.9123,25.87c2.7966,0,4.3264-1.243,4.8991-1.7284v1.2583s6.3102,0,6.3102,0V7.3155s-6.3102,0-6.3102,0v9.2468c0,.8035-.263,1.5281-.7398,2.0372-.5134.5489-1.2515.8391-2.1365.8391-.8841,0-1.6232-.2902-2.1365-.8391-.4768-.51-.7399-1.2337-.7399-2.0372V7.3155s-6.2736,0-6.2736,0v10.8326c0,2.3783.8222,4.3544,2.1017,5.717,1.2175,1.2948,3.0502,2.005,5.0255,2.005Z"/><path class="b" d="M119.8216,27.6741c0,2.2018-1.321,3.9898-3.5228,3.9898-1.3508,0-2.5463-.6745-3.2692-1.7046l-4.7744,3.343c1.7784,2.5319,4.7209,4.1907,8.0436,4.1907,5.4167,0,9.8228-4.4071,9.8228-9.8237,0-2.1204-.6753-4.0846-1.8225-5.6925"/><path class="b" d="M119.8216,23.4775v4.1918h6.3V7.5719h-6.3v15.9056"/></svg>