<svg width="26" height="26" viewBox="0 0 26 26" fill="none" xmlns="http://www.w3.org/2000/svg">
    <path d="M14.9246 22.8516H11.859C11.6708 22.8516 11.4893 22.782 11.3494 22.6562C11.2095 22.5303 11.1211 22.3572 11.1013 22.1701L10.8743 20.0327C10.5574 19.9249 10.2479 19.7966 9.94756 19.6488L8.27736 20.9996C8.13118 21.1173 7.94668 21.1769 7.75925 21.167C7.57182 21.1571 7.39465 21.0783 7.26174 20.9457L5.09388 18.7779C4.96136 18.645 4.88257 18.4678 4.87264 18.2804C4.8627 18.0929 4.92232 17.9084 5.04006 17.7623L6.39135 16.09C6.24326 15.7898 6.11485 15.4802 6.00693 15.1633L3.86599 14.9348C3.67897 14.915 3.50588 14.8267 3.38007 14.6869C3.25425 14.5471 3.18459 14.3657 3.18451 14.1776V11.1114C3.18459 10.9234 3.25425 10.742 3.38007 10.6022C3.50588 10.4624 3.67897 10.3741 3.86599 10.3543L6.00338 10.1273C6.1113 9.81038 6.23971 9.50081 6.38779 9.20055L5.0365 7.52832C4.91877 7.38214 4.85915 7.19764 4.86908 7.01021C4.87902 6.82278 4.9578 6.64561 5.09033 6.5127L7.25818 4.34485C7.3911 4.21232 7.56826 4.13353 7.75569 4.1236C7.94313 4.11366 8.12763 4.17328 8.27381 4.29102L9.94603 5.6418C10.2463 5.49397 10.5559 5.36573 10.8728 5.25789L11.0998 3.12051C11.1193 2.93286 11.2077 2.75912 11.348 2.63294C11.4882 2.50676 11.6703 2.43712 11.859 2.4375H14.9246C15.1128 2.43746 15.2943 2.50706 15.4342 2.63289C15.5741 2.75872 15.6625 2.93187 15.6823 3.11899L15.9088 5.25637C16.2258 5.36421 16.5355 5.49244 16.836 5.64027L18.5078 4.28949C18.6539 4.17176 18.8384 4.11214 19.0259 4.12207C19.2133 4.13201 19.3905 4.2108 19.5234 4.34332L21.6912 6.51117C21.8238 6.64409 21.9025 6.82125 21.9125 7.00869C21.9224 7.19612 21.8628 7.38062 21.7451 7.5268L20.3938 9.19902C20.5416 9.49938 20.67 9.80894 20.7782 10.1258L22.9156 10.3528C23.1025 10.3727 23.2755 10.4611 23.4012 10.6008C23.5269 10.7406 23.5965 10.9219 23.5965 11.1099V14.1761C23.5969 14.364 23.5278 14.5455 23.4024 14.6855C23.2771 14.8256 23.1044 14.9143 22.9176 14.9348L20.7802 15.1618C20.6721 15.4786 20.5437 15.7882 20.3958 16.0885L21.7471 17.7607C21.8648 17.9069 21.9244 18.0914 21.9145 18.2789C21.9046 18.4663 21.8258 18.6435 21.6933 18.7764L19.5254 20.9457C19.3925 21.0783 19.2153 21.1571 19.0279 21.167C18.8405 21.1769 18.656 21.1173 18.5098 20.9996L16.8381 19.6488C16.5376 19.7966 16.2278 19.9249 15.9108 20.0327L15.6843 22.1701C15.6645 22.3575 15.5758 22.531 15.4355 22.6569C15.2951 22.7827 15.1131 22.8521 14.9246 22.8516ZM12.543 21.3281H14.2386L14.4463 19.37C14.4626 19.2167 14.525 19.072 14.6252 18.955C14.7255 18.8379 14.859 18.754 15.0079 18.7144C15.5444 18.5713 16.0595 18.3574 16.5395 18.0781C16.6731 18.0003 16.8273 17.9649 16.9815 17.9768C17.1357 17.9887 17.2826 18.0472 17.4028 18.1446L18.9343 19.3822L20.1333 18.1832L18.8937 16.6563C18.7963 16.5361 18.7377 16.3892 18.7258 16.235C18.714 16.0808 18.7493 15.9266 18.8272 15.793C19.1058 15.3133 19.3191 14.7986 19.4614 14.2624C19.5011 14.1134 19.585 13.9799 19.7022 13.8796C19.8193 13.7793 19.9642 13.717 20.1175 13.7008L22.0751 13.4926V11.797L20.1175 11.5888C19.9642 11.5726 19.8193 11.5102 19.7022 11.4099C19.585 11.3097 19.5011 11.1762 19.4614 11.0271C19.3192 10.4908 19.1059 9.97591 18.8272 9.49609C18.7493 9.36246 18.714 9.20829 18.7258 9.05408C18.7377 8.89988 18.7963 8.75294 18.8937 8.63281L20.1312 7.10125L18.9323 5.90231L17.4007 7.13985C17.2806 7.23727 17.1337 7.29581 16.9795 7.30769C16.8252 7.31958 16.6711 7.28423 16.5374 7.20637C16.0577 6.92792 15.543 6.71463 15.0069 6.57211C14.8579 6.53249 14.7245 6.44861 14.6242 6.33156C14.524 6.21451 14.4615 6.06979 14.4453 5.91652L14.2396 3.96094H12.543L12.3353 5.91906C12.319 6.0724 12.2565 6.21716 12.1561 6.33422C12.0557 6.45128 11.9222 6.53512 11.7731 6.57465C11.2374 6.71782 10.7232 6.9318 10.2441 7.21094C10.1105 7.2888 9.95631 7.32415 9.80211 7.31226C9.6479 7.30038 9.50096 7.24184 9.38084 7.14442L7.8508 5.90484L6.65236 7.10379L7.89041 8.63535C7.98775 8.75553 8.0462 8.9025 8.05799 9.0567C8.06979 9.21091 8.03436 9.36505 7.95642 9.49863C7.6782 9.9785 7.46492 10.4932 7.32217 11.0292C7.28254 11.1781 7.19867 11.3116 7.08162 11.4118C6.96457 11.5121 6.81985 11.5745 6.66658 11.5908L4.70845 11.799V13.4941L6.66658 13.7023C6.81985 13.7186 6.96457 13.781 7.08162 13.8813C7.19867 13.9816 7.28254 14.115 7.32217 14.2639C7.46489 14.7994 7.67799 15.3136 7.95591 15.793C8.03385 15.9266 8.06928 16.0807 8.05749 16.2349C8.04569 16.3891 7.98724 16.5361 7.8899 16.6563L6.65236 18.1853L7.85131 19.3842L9.38338 18.1467C9.5035 18.0493 9.65044 17.9907 9.80465 17.9788C9.95885 17.967 10.113 18.0023 10.2467 18.0802C10.7262 18.3587 11.2407 18.572 11.7767 18.7144C11.9257 18.7539 12.0593 18.8378 12.1597 18.9548C12.26 19.0719 12.3225 19.2167 12.3388 19.37L12.543 21.3281Z" fill="black"/>
    <path d="M13.3916 17.2839C12.474 17.2838 11.5771 17.0116 10.8142 16.5018C10.0513 15.9919 9.45676 15.2673 9.10569 14.4196C8.75463 13.5718 8.66283 12.639 8.84189 11.7391C9.02096 10.8392 9.46286 10.0126 10.1117 9.36379C10.7606 8.71501 11.5872 8.27321 12.4872 8.09424C13.3871 7.91527 14.3199 8.00717 15.1676 8.35833C16.0153 8.70949 16.7398 9.30413 17.2496 10.0671C17.7594 10.83 18.0314 11.7269 18.0314 12.6445C18.0301 13.8746 17.5408 15.054 16.6709 15.9237C15.8011 16.7935 14.6217 17.2827 13.3916 17.2839ZM13.3916 9.52857C12.7753 9.52867 12.1729 9.7115 11.6606 10.0539C11.1482 10.3964 10.7489 10.8831 10.5132 11.4524C10.2774 12.0218 10.2158 12.6483 10.3361 13.2527C10.4563 13.8571 10.7532 14.4123 11.1889 14.848C11.6247 15.2837 12.1799 15.5804 12.7844 15.7006C13.3888 15.8208 14.0153 15.7591 14.5846 15.5232C15.1539 15.2874 15.6405 14.888 15.9829 14.3756C16.3253 13.8632 16.508 13.2608 16.508 12.6445C16.5071 11.8183 16.1784 11.0262 15.5941 10.4421C15.0099 9.8579 14.2178 9.52937 13.3916 9.52857Z" fill="black"/>
</svg>
