<svg width="20" height="20" viewBox="0 0 10 19" fill="none" xmlns="http://www.w3.org/2000/svg">
    <path d="M5.82022 11.8711V3.74091C5.82022 3.52043 5.73264 3.30898 5.57674 3.15308C5.42084 2.99718 5.20939 2.90959 4.98891 2.90959C4.76843 2.90959 4.55699 2.99718 4.40108 3.15308C4.24518 3.30898 4.1576 3.52043 4.1576 3.74091V11.8711C3.90631 12.0162 3.69737 12.2245 3.55153 12.4754C3.40569 12.7262 3.32804 13.0108 3.32629 13.301C3.32629 13.742 3.50146 14.1648 3.81326 14.4766C4.12506 14.7885 4.54796 14.9636 4.98891 14.9636C5.42987 14.9636 5.85276 14.7885 6.16456 14.4766C6.47637 14.1648 6.65154 13.742 6.65154 13.301C6.64978 13.0108 6.57213 12.7262 6.42629 12.4754C6.28045 12.2245 6.07151 12.0162 5.82022 11.8711ZM8.72982 9.97575V3.74091C8.72982 2.74876 8.33569 1.79724 7.63413 1.09569C6.93257 0.39413 5.98106 0 4.98891 0C3.99676 0 3.04525 0.39413 2.34369 1.09569C1.64214 1.79724 1.24801 2.74876 1.24801 3.74091V9.97575C0.673439 10.6268 0.278802 11.4166 0.103133 12.267C-0.0725362 13.1174 -0.0231511 13.999 0.246403 14.8244C0.515958 15.6499 0.996341 16.3907 1.64004 16.9735C2.28373 17.5563 3.06843 17.961 3.91652 18.1475C4.26882 18.2278 4.62783 18.2752 4.98891 18.2889C5.95375 18.2934 6.89919 18.0179 7.71064 17.4959C8.52209 16.9739 9.16473 16.2278 9.56067 15.3479C9.95661 14.468 10.0889 13.4922 9.94139 12.5387C9.79392 11.5852 9.37306 10.6949 8.72982 9.97575ZM7.06719 15.8531C6.62934 16.2091 6.10809 16.4478 5.55252 16.5468C4.99695 16.6457 4.42534 16.6017 3.8915 16.4187C3.35766 16.2358 2.87916 15.92 2.50105 15.5011C2.12293 15.0822 1.85765 14.574 1.73017 14.0242C1.60173 13.4685 1.61839 12.8892 1.77853 12.3418C1.93867 11.7944 2.23692 11.2974 2.64461 10.8985C2.72316 10.8215 2.78565 10.7297 2.82846 10.6284C2.87127 10.5271 2.89355 10.4183 2.894 10.3083V3.74091C2.894 3.18971 3.11297 2.66109 3.50272 2.27134C3.89247 1.88159 4.42109 1.66262 4.97228 1.66262C5.52348 1.66262 6.0521 1.88159 6.44185 2.27134C6.8316 2.66109 7.05057 3.18971 7.05057 3.74091V10.3415C7.05102 10.4515 7.0733 10.5603 7.11611 10.6616C7.15892 10.763 7.22141 10.8548 7.29996 10.9318C7.63976 11.26 7.90571 11.6569 8.08008 12.096C8.25446 12.5351 8.33326 13.0064 8.31123 13.4783C8.28921 13.9503 8.16687 14.4121 7.95235 14.8331C7.73784 15.254 7.43609 15.6244 7.06719 15.9196V15.8531Z" fill="#2e59be"/>
</svg>
