<?xml version="1.0" encoding="UTF-8"?><svg id="b" xmlns="http://www.w3.org/2000/svg" viewBox="0 0 23.2822 36.4681"><defs><style>.d{fill:#2eb14b;}</style></defs><g id="c"><path class="d" d="M9.8229,5.4358C4.4062,5.4358,0,9.8428,0,15.2595s4.4062,9.8228,9.8229,9.8228c1.1794,0,2.3104-.2087,3.3591-.5914.4005.622.6338,1.361.6338,2.1543,0,2.2018-1.7911,3.9938-3.9929,3.9938-1.3508,0-2.5463-.6745-3.2692-1.7046l-4.7744,3.343c1.7784,2.5319,4.7209,4.1907,8.0436,4.1907,5.4167,0,9.8228-4.4071,9.8228-9.8237,0-2.1204-.6753-4.0846-1.8225-5.6925,1.1472-1.607,1.8225-3.573,1.8225-5.6933,0-5.415-4.4061-9.8228-9.8228-9.8228ZM9.8229,19.2524c-2.2018,0-3.993-1.7911-3.993-3.9929s1.7912-3.9938,3.993-3.9938,3.9929,1.7911,3.9929,3.9938-1.7911,3.9929-3.9929,3.9929Z"/><path class="d" d="M22.2183,1.064c-1.4187-1.4187-3.7266-1.4187-5.1452,0-1.4187,1.4195-1.4187,3.7274,0,5.1452,1.4186,1.4178,3.7265,1.4186,5.1452,0,1.4186-1.4187,1.4186-3.7257,0-5.1452Z"/></g></svg>