<svg width="21" height="21" viewBox="0 0 21 21" fill="none" xmlns="http://www.w3.org/2000/svg">
    <path d="M15.75 12.3047C15.75 13.6971 15.1969 15.0324 14.2123 16.017C13.2277 17.0016 11.8924 17.5547 10.5 17.5547C9.10761 17.5547 7.77226 17.0016 6.78769 16.017C5.80312 15.0324 5.25 13.6971 5.25 12.3047C5.25 9.40406 10.5 3.77344 10.5 3.77344C10.5 3.77344 15.75 9.40406 15.75 12.3047Z" stroke="#2e59be" stroke-width="1.3125" stroke-linecap="round" stroke-linejoin="round"/>
    <path d="M8.57062 8.86595C9.06281 8.13095 9.62718 7.37626 10.1981 6.67407" stroke="#2e59be" stroke-width="0.65625" stroke-linecap="round" stroke-linejoin="round"/>
    <path d="M7.09406 12.0947C7.18527 11.3929 7.43188 10.7203 7.81593 10.1259" stroke="#2e59be" stroke-width="0.65625" stroke-linecap="round" stroke-linejoin="round"/>
    <path d="M15.75 12.3047C15.75 15.2053 13.4006 16.8984 10.5 16.8984C7.59937 16.8984 5.25 15.2053 5.25 12.3047" stroke="#2e59be" stroke-width="1.3125" stroke-linecap="round" stroke-linejoin="round"/>
</svg>
